<svg xmlns="http://www.w3.org/2000/svg" width="1400" height="560" viewBox="0 0 1400 560" role="img" aria-labelledby="title desc">
<title id="title">AI Trading Coach — Clarity over noise</title>
<desc id="desc">An editorial-style trading analytics dashboard illustration with performance cards and a cumulative P and L chart.</desc>
<rect width="1400" height="560" fill="#f7f4ed"/>
<rect x="0" y="0" width="1400" height="560" rx="8" fill="#f7f4ed"/>
<circle cx="1320" cy="30" r="220" fill="#e9e2d4"/>
<circle cx="1320" cy="30" r="150" fill="none" stroke="#d8cdbb" stroke-width="2"/>
<circle cx="1320" cy="30" r="95" fill="none" stroke="#d8cdbb" stroke-width="2"/>
<text x="72" y="70" font-family="Arial, sans-serif" font-size="17" font-weight="700" letter-spacing="5" fill="#c65c3d">THE TRADING JOURNAL · ISSUE 01</text>
<text x="68" y="165" font-family="Georgia, serif" font-size="74" font-weight="700" fill="#202a25">Clarity over noise.</text>
<text x="72" y="218" font-family="Arial, sans-serif" font-size="23" fill="#6d766e">A considered workspace for trade history, risk and reflection.</text>
<rect x="72" y="275" width="1256" height="220" rx="6" fill="#fffdf8" stroke="#e5dfd2" stroke-width="2"/>
<rect x="96" y="300" width="225" height="76" rx="4" fill="#f7f4ed" stroke="#e5dfd2"/>
<rect x="340" y="300" width="225" height="76" rx="4" fill="#f7f4ed" stroke="#e5dfd2"/>
<rect x="584" y="300" width="225" height="76" rx="4" fill="#f7f4ed" stroke="#e5dfd2"/>
<rect x="828" y="300" width="225" height="76" rx="4" fill="#f7f4ed" stroke="#e5dfd2"/>
<text x="116" y="328" font-family="Arial, sans-serif" font-size="12" font-weight="700" letter-spacing="1.5" fill="#6d766e">RECORDED TRADES</text>
<text x="116" y="358" font-family="Georgia, serif" font-size="28" fill="#202a25">01 —</text>
<text x="360" y="328" font-family="Arial, sans-serif" font-size="12" font-weight="700" letter-spacing="1.5" fill="#6d766e">WIN RATE</text>
<text x="360" y="358" font-family="Georgia, serif" font-size="28" fill="#202a25">Historical</text>
<text x="604" y="328" font-family="Arial, sans-serif" font-size="12" font-weight="700" letter-spacing="1.5" fill="#6d766e">NET P&amp;L</text>
<text x="604" y="358" font-family="Georgia, serif" font-size="28" fill="#202a25">Record-based</text>
<text x="848" y="328" font-family="Arial, sans-serif" font-size="12" font-weight="700" letter-spacing="1.5" fill="#6d766e">RISK</text>
<text x="848" y="358" font-family="Georgia, serif" font-size="28" fill="#202a25">In context</text>
<text x="1090" y="320" font-family="Arial, sans-serif" font-size="12" font-weight="700" letter-spacing="1.5" fill="#6d766e">CUMULATIVE P&amp;L</text>
<line x1="1090" y1="450" x2="1295" y2="450" stroke="#e5dfd2" stroke-width="2"/>
<line x1="1090" y1="385" x2="1090" y2="450" stroke="#e5dfd2" stroke-width="2"/>
<path d="M1098 433 L1124 420 L1146 429 L1170 400 L1193 411 L1216 385 L1238 394 L1264 366 L1287 375" fill="none" stroke="#c65c3d" stroke-width="4" stroke-linecap="round" stroke-linejoin="round"/>
<circle cx="1287" cy="375" r="5" fill="#c65c3d"/>
<text x="96" y="430" font-family="Arial, sans-serif" font-size="14" fill="#6d766e">HISTORY, NOT HYPE</text>
<text x="96" y="458" font-family="Georgia, serif" font-size="25" fill="#233d32">Understand the sequence behind the result.</text>
</svg>